HIERARCHY
ROOT SpineBase
{
  OFFSET 0.000000 0.000000 0.000000
  CHANNELS 6 Xposition Yposition Zposition Zrotation Xrotation Yrotation
  JOINT SpineMid
  {
    OFFSET 0.000000 25.699208 0.000000
    CHANNELS 3 Zrotation Xrotation Yrotation
    JOINT SpineShoulder
    {
      OFFSET 0.106846 19.205990 -0.698533
      CHANNELS 3 Zrotation Xrotation Yrotation
      JOINT Neck
      {
        OFFSET 0.102814 6.438806 -0.563750
        CHANNELS 3 Zrotation Xrotation Yrotation
        JOINT Head
        {
          OFFSET 3.824864 14.174623 -1.564745
          CHANNELS 3 Zrotation Xrotation Yrotation
          End Site
          {
            OFFSET 0 0 0
          }
        }
      }
      JOINT ShoulderLeft
      {
        OFFSET -11.436533 0.629753 -8.941566
        CHANNELS 3 Zrotation Xrotation Yrotation
        JOINT ElbowLeft
        {
          OFFSET -3.888637 -18.654765 -8.483415
          CHANNELS 3 Zrotation Xrotation Yrotation
          JOINT WristLeft
          {
            OFFSET 14.064467 -14.233629 -17.184567
            CHANNELS 3 Zrotation Xrotation Yrotation
            JOINT HandLeft
            {
              OFFSET -0.085437 -2.244892 -3.049603
              CHANNELS 3 Zrotation Xrotation Yrotation
              JOINT HandTipLeft
              {
                OFFSET 1.184714 -2.166779 -4.984238
                CHANNELS 3 Zrotation Xrotation Yrotation
                End Site
                {
                  OFFSET 0 0 0
                }
              }
              JOINT ThumbLeft
              {
                OFFSET 5.028737 2.065618 -0.181486
                CHANNELS 3 Zrotation Xrotation Yrotation
                End Site
                {
                  OFFSET 0 0 0
                }
              }
            }
          }
        }
      }
      JOINT ShoulderRight
      {
        OFFSET 13.460174 -1.880026 7.871755
        CHANNELS 3 Zrotation Xrotation Yrotation
        JOINT ElbowRight
        {
          OFFSET 5.154062 -20.569562 0.065836
          CHANNELS 3 Zrotation Xrotation Yrotation
          JOINT WristRight
          {
            OFFSET 8.292269 -14.203886 -17.281006
            CHANNELS 3 Zrotation Xrotation Yrotation
            JOINT HandRight
            {
              OFFSET -0.194522 -1.985084 -4.399146
              CHANNELS 3 Zrotation Xrotation Yrotation
              JOINT HandTipRight
              {
                OFFSET 1.957020 -1.455019 -4.173516
                CHANNELS 3 Zrotation Xrotation Yrotation
                End Site
                {
                  OFFSET 0 0 0
                }
              }
              JOINT ThumbRight
              {
                OFFSET 3.654940 1.599033 -2.307657
                CHANNELS 3 Zrotation Xrotation Yrotation
                End Site
                {
                  OFFSET 0 0 0
                }
              }
            }
          }
        }
      }
    }
  }
  JOINT HipLeft
  {
    OFFSET -5.178636 1.732027 -6.570774
    CHANNELS 3 Zrotation Xrotation Yrotation
    JOINT KneeLeft
    {
      OFFSET 9.715532 4.410332 -33.439699
      CHANNELS 3 Zrotation Xrotation Yrotation
      JOINT AnkleLeft
      {
        OFFSET 3.413023 -33.480366 -0.530565
        CHANNELS 3 Zrotation Xrotation Yrotation
        JOINT FootLeft
        {
          OFFSET 6.103038 -2.419977 -11.517635
          CHANNELS 3 Zrotation Xrotation Yrotation
          End Site
          {
            OFFSET 0 0 0
          }
        }
      }
    }
  }
  JOINT HipRight
  {
    OFFSET 6.397982 1.032328 0.273229
    CHANNELS 3 Zrotation Xrotation Yrotation
    JOINT KneeRight
    {
      OFFSET 26.791535 2.609779 -17.218701
      CHANNELS 3 Zrotation Xrotation Yrotation
      JOINT AnkleRight
      {
        OFFSET -5.076987 -32.570899 -10.820841
        CHANNELS 3 Zrotation Xrotation Yrotation
        JOINT FootRight
        {
          OFFSET 5.916693 -2.445356 -11.561188
          CHANNELS 3 Zrotation Xrotation Yrotation
          End Site
          {
            OFFSET 0 0 0
          }
        }
      }
    }
  }
}
MOTION
Frames: 9
Frame Time: 0.033333
-66.707795 30.417602 365.081333 0.733908 -7.460888 -33.211947 -0.253959 0.304920 33.325057 0.366444 1.163808 0.088218 16.927982 14.384658 -3.848763 0.000000 0.000000 0.000000 11.781839 1.549209 -6.155682 0.545261 14.689553 -2.323858 86.562644 20.606378 -107.788437 44.018456 -83.857578 109.991828 0.000000 0.000000 0.000000 0.000000 0.000000 0.000000 5.965380 14.554318 0.802867 -32.504246 37.896802 46.218221 -19.293879 -42.106135 -37.193925 -8.237514 -4.371013 30.102187 0.000000 0.000000 0.000000 0.000000 0.000000 0.000000 -5.394985 8.777509 35.951757 -2.639357 -1.858262 -2.341736 0.352045 -2.464450 1.349529 0.000000 0.000000 0.000000 -5.812260 2.575677 36.369216 -0.240417 2.588910 -1.772028 1.936128 -2.091530 0.530755 0.000000 0.000000 0.000000
-66.735532 30.351602 364.997321 0.608448 -7.159646 -33.379686 -0.257702 0.556767 33.471823 0.600216 1.265668 0.086995 15.661436 15.564775 -4.381451 0.000000 0.000000 0.000000 11.954455 0.828476 -6.220294 -1.387367 13.701570 -1.206829 82.182608 16.607652 -102.853033 8.089088 -82.076530 79.276338 0.000000 0.000000 0.000000 0.000000 0.000000 0.000000 5.678013 14.375689 0.959213 -33.444991 38.011368 47.351400 -19.947297 -44.037327 -40.468580 -7.768500 -1.880847 30.123854 0.000000 0.000000 0.000000 0.000000 0.000000 0.000000 -5.196188 8.718146 36.065670 -2.750636 -1.953461 -2.315682 0.504585 -2.347211 1.364732 0.000000 0.000000 0.000000 -5.512264 2.511826 36.348749 -0.398710 2.493924 -1.603419 2.056251 -1.924983 0.536449 0.000000 0.000000 0.000000
-66.843612 30.266323 364.878414 0.457662 -6.870923 -33.425580 -0.135716 0.500121 33.499859 0.761472 1.048512 0.092362 16.241823 17.962100 -5.536886 0.000000 0.000000 0.000000 12.606030 0.348402 -6.474617 -6.322094 11.126133 1.759762 74.992367 14.762909 -93.467483 -19.065560 -72.647425 55.088076 0.000000 0.000000 0.000000 0.000000 0.000000 0.000000 5.710452 14.048172 0.861810 -34.074920 38.700290 48.168473 -18.449029 -44.157121 -41.399483 -7.082985 0.850338 30.702015 0.000000 0.000000 0.000000 0.000000 0.000000 0.000000 -4.968536 8.656083 35.890842 -2.815615 -2.114194 -2.131209 0.580628 -2.261232 1.381590 0.000000 0.000000 0.000000 -5.175919 2.573702 36.036041 -0.557367 2.318920 -1.289380 2.043430 -1.863550 0.558710 0.000000 0.000000 0.000000
-67.005790 30.169323 364.734653 0.287013 -6.600489 -33.339713 0.068335 0.259359 33.397491 0.809893 0.621450 0.099663 18.045648 15.489711 -4.505811 0.000000 0.000000 0.000000 12.887684 0.997911 -6.756290 -9.365450 9.166171 4.141022 64.242638 12.865588 -80.537961 -21.428644 -59.375740 49.062393 0.000000 0.000000 0.000000 0.000000 0.000000 0.000000 6.057431 13.804721 0.629197 -34.080970 39.492488 48.133914 -18.360441 -43.205767 -39.851581 -5.202491 4.234707 29.299142 0.000000 0.000000 0.000000 0.000000 0.000000 0.000000 -4.717591 8.612033 35.489202 -2.854851 -2.214361 -1.844342 0.617890 -2.309449 1.342166 0.000000 0.000000 0.000000 -4.822773 2.714057 35.470186 -0.626622 2.111458 -0.896798 1.878622 -1.887428 0.574180 0.000000 0.000000 0.000000
-67.258859 30.062856 364.558399 0.022820 -6.308867 -33.027075 0.214890 0.185747 33.058388 0.921823 0.457487 0.098336 17.514829 12.441831 -3.026975 0.000000 0.000000 0.000000 13.141067 1.252788 -6.935843 -12.979406 6.485956 6.860291 46.349209 9.572415 -59.373106 -21.142045 -38.068133 37.643917 0.000000 0.000000 0.000000 0.000000 0.000000 0.000000 6.198718 13.223347 0.508599 -32.865375 39.880109 46.744607 -16.397428 -39.486797 -35.071964 -4.750348 0.723712 27.746082 0.000000 0.000000 0.000000 0.000000 0.000000 0.000000 -4.308095 8.462289 34.680224 -2.830879 -2.202796 -1.386597 0.680615 -2.277431 1.345484 0.000000 0.000000 0.000000 -4.356452 2.968297 34.507359 -0.674135 1.885368 -0.369856 1.664802 -1.888467 0.659791 0.000000 0.000000 0.000000
-67.438058 29.949589 364.391183 -0.099755 -6.049205 -32.759947 0.282871 0.089998 32.780115 0.952029 0.349508 0.096215 18.878626 8.701829 -1.330897 0.000000 0.000000 0.000000 13.411391 1.370615 -7.074438 -16.408817 3.833177 9.383286 31.349952 4.543279 -40.886583 -15.145433 -25.097663 25.351726 0.000000 0.000000 0.000000 0.000000 0.000000 0.000000 6.181470 12.881144 0.476436 -30.444307 39.477795 43.925371 -16.182892 -33.872241 -27.665324 -3.300341 -2.414134 24.811961 0.000000 0.000000 0.000000 0.000000 0.000000 0.000000 -4.050891 8.310193 34.045449 -2.874307 -2.255449 -1.048844 0.786434 -2.206939 1.361370 0.000000 0.000000 0.000000 -4.025754 3.132493 33.696733 -0.895436 1.691707 0.133966 1.659780 -1.872657 0.683843 0.000000 0.000000 0.000000
-67.521979 29.856779 364.253293 -0.138797 -5.825482 -32.587805 0.251661 -0.012655 32.605784 0.899206 0.261145 0.090588 19.334194 7.437386 -0.735314 0.000000 0.000000 0.000000 13.829020 1.326667 -7.194416 -19.598184 1.167616 11.492020 22.616109 -1.816685 -29.475172 -11.641342 -18.706850 16.146849 0.000000 0.000000 0.000000 0.000000 0.000000 0.000000 6.391189 11.981024 0.331926 -27.351890 39.739108 40.343338 -17.585874 -25.799349 -17.860143 -5.375266 -12.823250 20.839533 0.000000 0.000000 0.000000 0.000000 0.000000 0.000000 -3.893191 8.160569 33.653263 -2.983967 -2.302988 -0.850457 0.935367 -2.148418 1.379281 0.000000 0.000000 0.000000 -3.798656 3.205530 33.150213 -1.078033 1.523130 0.485847 1.673397 -1.822486 0.700631 0.000000 0.000000 0.000000
-67.475376 29.780409 364.194065 0.014585 -5.735570 -32.532924 0.093303 -0.103667 32.566612 0.778975 0.218655 0.085805 20.735752 6.157610 -0.119104 0.000000 0.000000 0.000000 13.901770 1.297891 -7.138849 -20.869164 0.419747 12.785643 18.741054 -4.718324 -24.420798 -9.104843 -19.048525 8.429557 0.000000 0.000000 0.000000 0.000000 0.000000 0.000000 6.269025 12.432002 0.480092 -24.262915 37.457782 36.438283 -21.591120 -17.138470 -5.902661 -4.749763 -19.555697 9.264942 0.000000 0.000000 0.000000 0.000000 0.000000 0.000000 -3.964688 8.016693 33.650819 -3.121685 -2.443181 -0.919776 1.080624 -1.976870 1.388950 0.000000 0.000000 0.000000 -3.820027 3.197887 32.997721 -1.246413 1.405000 0.600082 1.731084 -1.763621 0.681533 0.000000 0.000000 0.000000
-67.324556 29.741761 364.193495 0.286078 -5.737335 -32.663941 -0.100203 -0.176559 32.723593 0.633453 0.215344 0.084021 19.835135 5.132471 0.361802 0.000000 0.000000 0.000000 14.245742 1.063527 -7.211935 -22.481721 -0.560060 13.932612 18.270572 -5.141416 -23.210764 -8.335323 -20.768205 5.068573 0.000000 0.000000 0.000000 0.000000 0.000000 0.000000 6.120056 13.012230 0.639396 -23.212567 35.613336 34.951640 -23.289973 -14.086483 -0.965966 -6.708374 -23.025063 4.650200 0.000000 0.000000 0.000000 0.000000 0.000000 0.000000 -4.159765 7.781915 34.073310 -3.256017 -2.579800 -1.229502 1.219307 -1.692217 1.398460 0.000000 0.000000 0.000000 -4.029749 3.066924 33.296075 -1.316074 1.388448 0.463580 1.789419 -1.714628 0.653449 0.000000 0.000000 0.000000
